<svg width="2974" height="1210" xmlns="http://www.w3.org/2000/svg" xmlns:xlink="http://www.w3.org/1999/xlink" overflow="hidden"><defs><clipPath id="clip0"><rect x="779" y="297" width="2974" height="1210"/></clipPath></defs><g clip-path="url(#clip0)" transform="translate(-779 -297)"><path d="M785 442.168C785 366.412 846.412 305 922.168 305L3609.83 305C3685.59 305 3747 366.412 3747 442.168L3747 990.822C3747 1066.58 3685.59 1127.99 3609.83 1127.99L922.168 1127.99C846.412 1127.99 785 1066.58 785 990.822Z" stroke="#000000" stroke-width="10.3125" stroke-linecap="butt" stroke-linejoin="miter" stroke-miterlimit="8" stroke-opacity="1" fill="#FFFFFF" fill-rule="evenodd" fill-opacity="1"/><text fill="#000000" fill-opacity="1" font-family="Avenir Next Medium,Avenir Next Medium_MSFontService,sans-serif" font-style="normal" font-variant="normal" font-weight="500" font-stretch="normal" font-size="83" text-anchor="start" direction="ltr" writing-mode="lr-tb" unicode-bidi="normal" text-decoration="none" transform="matrix(1 0 0 1 3278.26 1044)">Your Work</text><path d="M1438 941C1438 928.298 1448.3 918 1461 918L2056 918C2068.7 918 2079 928.298 2079 941L2079 1033C2079 1045.7 2068.7 1056 2056 1056L1461 1056C1448.3 1056 1438 1045.7 1438 1033Z" stroke="#F33434" stroke-width="13.75" stroke-linecap="butt" stroke-linejoin="miter" stroke-miterlimit="8" stroke-opacity="1" fill="#FFFFFF" fill-rule="evenodd" fill-opacity="1"/><text fill="#F33434" fill-opacity="1" font-family="Avenir Next Medium,Avenir Next Medium_MSFontService,sans-serif" font-style="normal" font-variant="normal" font-weight="500" font-stretch="normal" font-size="83" text-anchor="start" direction="ltr" writing-mode="lr-tb" unicode-bidi="normal" text-decoration="none" transform="matrix(1 0 0 1 1518.88 1010)">0. Use Cases</text><path d="M1490 670C1490 657.298 1500.3 647 1513 647L2001 647C2013.7 647 2024 657.298 2024 670L2024 762C2024 774.703 2013.7 785 2001 785L1513 785C1500.3 785 1490 774.703 1490 762Z" stroke="#F33434" stroke-width="13.75" stroke-linecap="butt" stroke-linejoin="miter" stroke-miterlimit="8" stroke-opacity="1" fill="#FFFFFF" fill-rule="evenodd" fill-opacity="1"/><text fill="#F33434" fill-opacity="1" font-family="Avenir Next Medium,Avenir Next Medium_MSFontService,sans-serif" font-style="normal" font-variant="normal" font-weight="500" font-stretch="normal" font-size="83" text-anchor="start" direction="ltr" writing-mode="lr-tb" unicode-bidi="normal" text-decoration="none" transform="matrix(1 0 0 1 1548.95 739)">1. Problem</text><path d="M867 670C867 657.298 877.298 647 890 647L1378 647C1390.7 647 1401 657.298 1401 670L1401 762C1401 774.703 1390.7 785.001 1378 785.001L890 785.001C877.298 785.001 867 774.703 867 762Z" stroke="#E858BB" stroke-width="13.75" stroke-linecap="butt" stroke-linejoin="miter" stroke-miterlimit="8" stroke-opacity="1" fill="#FFFFFF" fill-rule="evenodd" fill-opacity="1"/><text fill="#E858BB" fill-opacity="1" font-family="Avenir Next Medium,Avenir Next Medium_MSFontService,sans-serif" font-style="normal" font-variant="normal" font-weight="500" font-stretch="normal" font-size="83" text-anchor="start" direction="ltr" writing-mode="lr-tb" unicode-bidi="normal" text-decoration="none" transform="matrix(1 0 0 1 952.461 739)">2. Causes</text><path d="M2112 670.001C2112 657.298 2122.3 647 2135 647L2963 647C2975.7 647 2986 657.298 2986 670.001L2986 761.999C2986 774.702 2975.7 785 2963 785L2135 785C2122.3 785 2112 774.702 2112 761.999Z" stroke="#0FACE8" stroke-width="13.75" stroke-linecap="butt" stroke-linejoin="miter" stroke-miterlimit="8" stroke-opacity="1" fill="#FFFFFF" fill-rule="evenodd" fill-opacity="1"/><text fill="#0FACE8" fill-opacity="1" font-family="Avenir Next Medium,Avenir Next Medium_MSFontService,sans-serif" font-style="normal" font-variant="normal" font-weight="500" font-stretch="normal" font-size="83" text-anchor="start" direction="ltr" writing-mode="lr-tb" unicode-bidi="normal" text-decoration="none" transform="matrix(1 0 0 1 2162.68 739)">5. Metrics of success</text><path d="M3131 675.001C3131 662.298 3141.3 652 3154 652L3642 652C3654.7 652 3665 662.298 3665 675.001L3665 767C3665 779.703 3654.7 790.001 3642 790.001L3154 790.001C3141.3 790.001 3131 779.703 3131 767Z" stroke="#0FACE8" stroke-width="13.75" stroke-linecap="butt" stroke-linejoin="miter" stroke-miterlimit="8" stroke-opacity="1" fill="#FFFFFF" fill-rule="evenodd" fill-opacity="1"/><text fill="#0FACE8" fill-opacity="1" font-family="Avenir Next Medium,Avenir Next Medium_MSFontService,sans-serif" font-style="normal" font-variant="normal" font-weight="500" font-stretch="normal" font-size="83" text-anchor="start" direction="ltr" writing-mode="lr-tb" unicode-bidi="normal" text-decoration="none" transform="matrix(1 0 0 1 3261.85 744)">Better?</text><path d="M2024 709.125 2078.4 709.125 2078.4 722.875 2024 722.875ZM2071.53 695.375 2112.78 716 2071.53 736.625Z" fill="#000000" fill-rule="nonzero" fill-opacity="1"/><path d="M1401 709.125 1455.4 709.125 1455.4 722.875 1401 722.875ZM1448.53 695.375 1489.78 716 1448.53 736.625Z" fill="#000000" fill-rule="nonzero" fill-opacity="1"/><path d="M1751.85 918.065 1750.57 819.461 1764.32 819.283 1765.59 917.887ZM1736.91 826.514 1757 785 1778.16 825.98Z" fill="#F33434" fill-rule="nonzero" fill-opacity="1"/><path d="M1947 399.834C1947 387.223 1957.22 377 1969.83 377L2457.17 377C2469.78 377 2480 387.223 2480 399.834L2480 491.166C2480 503.777 2469.78 514 2457.17 514L1969.83 514C1957.22 514 1947 503.777 1947 491.166Z" stroke="#F38234" stroke-width="13.75" stroke-linecap="butt" stroke-linejoin="miter" stroke-miterlimit="8" stroke-opacity="1" fill="#FFFFFF" fill-rule="evenodd" fill-opacity="1"/><text fill="#F38234" fill-opacity="1" font-family="Avenir Next Medium,Avenir Next Medium_MSFontService,sans-serif" font-style="normal" font-variant="normal" font-weight="500" font-stretch="normal" font-size="83" text-anchor="start" direction="ltr" writing-mode="lr-tb" unicode-bidi="normal" text-decoration="none" transform="matrix(1 0 0 1 1992.96 468)">4. Solutions</text><path d="M1251 399.834C1251 387.223 1261.22 377 1273.83 377L1762.17 377C1774.78 377 1785 387.223 1785 399.834L1785 491.166C1785 503.777 1774.78 514 1762.17 514L1273.83 514C1261.22 514 1251 503.777 1251 491.166Z" stroke="#E858BB" stroke-width="13.75" stroke-linecap="butt" stroke-linejoin="miter" stroke-miterlimit="8" stroke-opacity="1" fill="#FFFFFF" fill-rule="evenodd" fill-opacity="1"/><text fill="#E858BB" fill-opacity="1" font-family="Avenir Next Medium,Avenir Next Medium_MSFontService,sans-serif" font-style="normal" font-variant="normal" font-weight="500" font-stretch="normal" font-size="83" text-anchor="start" direction="ltr" writing-mode="lr-tb" unicode-bidi="normal" text-decoration="none" transform="matrix(1 0 0 1 1345.07 468)">3. Insight</text><path d="M2642 399.834C2642 387.223 2652.22 377 2664.83 377L3297.17 377C3309.78 377 3320 387.223 3320 399.834L3320 491.166C3320 503.777 3309.78 514 3297.17 514L2664.83 514C2652.22 514 2642 503.777 2642 491.166Z" stroke="#0FACE8" stroke-width="13.75" stroke-linecap="butt" stroke-linejoin="miter" stroke-miterlimit="8" stroke-opacity="1" fill="#FFFFFF" fill-rule="evenodd" fill-opacity="1"/><text fill="#0FACE8" fill-opacity="1" font-family="Avenir Next Medium,Avenir Next Medium_MSFontService,sans-serif" font-style="normal" font-variant="normal" font-weight="500" font-stretch="normal" font-size="83" text-anchor="start" direction="ltr" writing-mode="lr-tb" unicode-bidi="normal" text-decoration="none" transform="matrix(1 0 0 1 2736.66 468)">6. <tspan fill="#0FACE8" fill-opacity="1" font-family="Avenir Next Medium,Avenir Next Medium_MSFontService,sans-serif" font-style="normal" font-variant="normal" font-weight="500" font-stretch="normal" font-size="83" text-anchor="start" direction="ltr" writing-mode="lr-tb" unicode-bidi="normal" text-decoration="none" x="91.0938" y="0">Evaluation</tspan></text><path d="M1785 439.125 1912 439.125 1912 452.875 1785 452.875ZM1905.13 425.375 1946.38 446 1905.13 466.625Z" fill="#000000" fill-rule="nonzero" fill-opacity="1"/><path d="M1.53749e-05-6.875 127.001-6.87472 127.001 6.87528-1.53749e-05 6.875ZM120.126-20.6247 161.376 0.000360892 120.126 20.6253Z" fill="#000000" fill-rule="nonzero" fill-opacity="1" transform="matrix(1 0 0 -1 2480 446)"/><path d="M1127.13 647.654 1127.81 628.515 1129.82 609.3 1133.07 590.402 1137.45 571.964 1142.9 554.126 1149.31 537.03 1156.62 520.818 1164.75 505.63 1173.61 491.608 1183.1 478.957 1188.15 473.08 1193.29 467.641 1198.58 462.602 1204.44 457.611 1215.93 451.635 1222.27 463.836 1211.47 469.451 1212.76 468.583 1207.64 472.942 1207.93 472.686 1202.91 477.47 1203.16 477.219 1198.25 482.41 1198.47 482.165 1193.68 487.744 1193.96 487.39 1184.78 499.639 1185.09 499.187 1176.5 512.767 1176.75 512.336 1168.86 527.099 1169.06 526.682 1161.94 542.48 1162.11 542.07 1155.84 558.756 1155.98 558.346 1150.67 575.771 1150.78 575.355 1146.49 593.371 1146.58 592.943 1143.41 611.403 1143.47 610.956 1141.51 629.711 1141.54 629.24 1140.87 648.144ZM1205.6 440.697 1251.41 446 1219.68 479.468Z" fill="#E858BB" fill-rule="nonzero" fill-opacity="1"/><path d="M3320.56 439.148 3324.77 439.491 3329.44 440.617 3333.95 442.411 3338.3 444.802 3342.48 447.736 3346.51 451.169 3350.4 455.072 3354.18 459.421 3357.84 464.197 3361.39 469.381 3364.84 474.959 3368.18 480.913 3371.41 487.229 3374.56 493.935 3380.44 508.168 3385.84 523.629 3390.7 540.124 3394.96 557.511 3398.58 575.648 3401.5 594.45 3403.69 617.799 3390 619.081 3387.83 595.94 3387.88 596.355 3385.02 577.904 3385.07 578.192 3381.51 560.347 3381.57 560.64 3377.38 543.552 3377.47 543.858 3372.7 527.678 3372.8 528.004 3367.52 512.884 3367.66 513.241 3361.91 499.333 3362.04 499.628 3359.02 493.176 3359.12 493.39 3356 487.298 3356.12 487.529 3352.92 481.815 3353.06 482.064 3349.78 476.748 3349.96 477.02 3346.6 472.12 3346.81 472.417 3343.39 467.952 3343.65 468.275 3340.17 464.265 3340.5 464.616 3336.97 461.079 3337.38 461.455 3333.8 458.411 3334.31 458.805 3330.7 456.271 3331.34 456.666 3327.7 454.663 3328.48 455.03 3324.82 453.575 3325.74 453.869 3322.07 452.983 3323.12 453.152 3319.44 452.852ZM3417.1 610.544 3398.56 652.772 3375.9 612.604Z" fill="#0FACE8" fill-rule="nonzero" fill-opacity="1"/><path d="M2542.16 646.289 2542.54 642.525 2543.81 638.24 2545.8 634.192 2548.39 630.379 2551.51 626.769 2555.13 623.325 2559.21 620.018 2563.75 616.827 2568.72 613.738 2574.11 610.743 2579.9 607.839 2586.09 605.024 2592.65 602.3 2599.61 599.652 2614.41 594.695 2630.48 590.14 2647.64 586.042 2665.72 582.446 2684.59 579.396 2704.08 576.939 2724.05 575.123 2744.34 573.998 2764.68 573.614 2784.88 573.233 2784.63 573.242 2804.68 572.13 2804.44 572.148 2824.17 570.354 2823.93 570.38 2843.19 567.953 2842.95 567.987 2861.57 564.976 2861.33 565.02 2879.16 561.473 2878.91 561.529 2895.79 557.496 2895.52 557.568 2911.3 553.096 2910.99 553.191 2925.5 548.33 2925.24 548.423 2931.98 545.861 2931.78 545.938 2938.14 543.297 2937.93 543.389 2943.89 540.675 2943.66 540.786 2949.21 538.005 2947.3 539.423 2952.11 534.349 2962.09 543.806 2956.45 549.757 2949.71 553.137 2943.52 555.952 2936.96 558.676 2930 561.324 2915.2 566.281 2899.13 570.836 2881.97 574.934 2863.89 578.53 2845.02 581.58 2825.53 584.037 2805.56 585.852 2785.27 586.978 2764.93 587.362 2744.73 587.743 2744.98 587.734 2724.93 588.846 2725.17 588.828 2705.44 590.622 2705.68 590.596 2686.42 593.023 2686.66 592.988 2668.04 596 2668.28 595.956 2650.45 599.503 2650.7 599.446 2633.82 603.48 2634.09 603.408 2618.31 607.88 2618.62 607.784 2604.11 612.646 2604.37 612.553 2597.63 615.114 2597.83 615.038 2591.47 617.679 2591.68 617.587 2585.72 620.301 2585.95 620.19 2580.4 622.97 2580.66 622.834 2575.54 625.675 2575.83 625.505 2571.18 628.401 2571.5 628.185 2567.32 631.13 2567.69 630.851 2563.99 633.839 2564.41 633.475 2561.23 636.5 2561.69 636.019 2559.04 639.074 2559.53 638.437 2557.44 641.516 2557.93 640.679 2556.41 643.776 2556.83 642.712 2555.9 645.821 2556.15 644.547 2555.84 647.663ZM2937.35 529.986 2980.61 514 2967.44 558.2Z" fill="#0FACE8" fill-rule="nonzero" fill-opacity="1"/><path d="M785 1302.17C785 1282.19 801.192 1266 821.167 1266L3710.83 1266C3730.81 1266 3747 1282.19 3747 1302.17L3747 1446.83C3747 1466.81 3730.81 1483 3710.83 1483L821.167 1483C801.192 1483 785 1466.81 785 1446.83Z" stroke="#7F7F7F" stroke-width="10.3125" stroke-linecap="butt" stroke-linejoin="miter" stroke-miterlimit="8" stroke-opacity="1" fill="#FFFFFF" fill-rule="evenodd" fill-opacity="1"/><text fill="#7F7F7F" fill-opacity="1" font-family="Avenir Next Medium,Avenir Next Medium_MSFontService,sans-serif" font-style="normal" font-variant="normal" font-weight="500" font-stretch="normal" font-size="83" text-anchor="start" direction="ltr" writing-mode="lr-tb" unicode-bidi="normal" text-decoration="none" transform="matrix(1 0 0 1 3288.34 1429)">Their Work</text><path d="M2271.16 1153.78 2271.16 1164.09 2260.84 1164.09 2260.84 1153.78ZM2271.16 1174.41 2271.16 1184.72 2260.84 1184.72 2260.84 1174.41ZM2271.16 1195.03 2271.16 1205.34 2260.84 1205.34 2260.84 1195.03ZM2271.16 1215.66 2271.16 1225.97 2260.84 1225.97 2260.84 1215.66ZM2271.16 1236.28 2271.16 1240.07 2260.84 1240.07 2260.84 1236.28ZM2250.53 1158.94 2266 1128 2281.47 1158.94ZM2281.47 1234.91 2266 1265.85 2250.53 1234.91Z" fill="#7F7F7F" fill-rule="nonzero" fill-opacity="1"/></g></svg>