<svg width="2974" height="1210" xmlns="http://www.w3.org/2000/svg" xmlns:xlink="http://www.w3.org/1999/xlink" xml:space="preserve" overflow="hidden"><g transform="translate(-779 -297)"><g><path d="M785 442.171C785 366.413 846.414 305 922.171 305L3609.83 305C3685.59 305 3747 366.413 3747 442.171L3747 990.829C3747 1066.59 3685.59 1128 3609.83 1128L922.171 1128C846.414 1128 785 1066.59 785 990.829Z" stroke="#000000" stroke-width="10.3125" stroke-linecap="butt" stroke-linejoin="miter" stroke-miterlimit="8" stroke-opacity="1" fill="#FFFFFF" fill-rule="evenodd" fill-opacity="1"/><text fill="#000000" fill-opacity="1" font-family="Avenir Book,Avenir Book_MSFontService,sans-serif" font-style="normal" font-variant="normal" font-weight="400" font-stretch="normal" font-size="83" text-anchor="start" direction="ltr" writing-mode="lr-tb" unicode-bidi="normal" text-decoration="none" transform="matrix(1 0 0 1 3274.04 1047)">Your Paper</text><path d="M1438 941C1438 928.298 1448.3 918 1461 918L2056 918C2068.7 918 2079 928.298 2079 941L2079 1033C2079 1045.7 2068.7 1056 2056 1056L1461 1056C1448.3 1056 1438 1045.7 1438 1033Z" stroke="#F33434" stroke-width="10.3125" stroke-linecap="butt" stroke-linejoin="miter" stroke-miterlimit="8" stroke-opacity="1" fill="#FFFFFF" fill-rule="evenodd" fill-opacity="1"/><text fill="#F33434" fill-opacity="1" font-family="Avenir Book,Avenir Book_MSFontService,sans-serif" font-style="normal" font-variant="normal" font-weight="400" font-stretch="normal" font-size="83" text-anchor="start" direction="ltr" writing-mode="lr-tb" unicode-bidi="normal" text-decoration="none" transform="matrix(1 0 0 1 1524.03 1013)">0. Use Cases</text><path d="M1490 670C1490 657.298 1500.3 647 1513 647L2001 647C2013.7 647 2024 657.298 2024 670L2024 762C2024 774.703 2013.7 785 2001 785L1513 785C1500.3 785 1490 774.703 1490 762Z" stroke="#F33434" stroke-width="10.3125" stroke-linecap="butt" stroke-linejoin="miter" stroke-miterlimit="8" stroke-opacity="1" fill="#FFFFFF" fill-rule="evenodd" fill-opacity="1"/><text fill="#F33434" fill-opacity="1" font-family="Avenir Book,Avenir Book_MSFontService,sans-serif" font-style="normal" font-variant="normal" font-weight="400" font-stretch="normal" font-size="83" text-anchor="start" direction="ltr" writing-mode="lr-tb" unicode-bidi="normal" text-decoration="none" transform="matrix(1 0 0 1 1556.29 742)">1. Problem</text><path d="M867 670C867 657.298 877.298 647 890 647L1378 647C1390.7 647 1401 657.298 1401 670L1401 762C1401 774.703 1390.7 785.001 1378 785.001L890 785.001C877.298 785.001 867 774.703 867 762Z" stroke="#E858BB" stroke-width="10.3125" stroke-linecap="butt" stroke-linejoin="miter" stroke-miterlimit="8" stroke-opacity="1" fill="#FFFFFF" fill-rule="evenodd" fill-opacity="1"/><text fill="#E858BB" fill-opacity="1" font-family="Avenir Book,Avenir Book_MSFontService,sans-serif" font-style="normal" font-variant="normal" font-weight="400" font-stretch="normal" font-size="83" text-anchor="start" direction="ltr" writing-mode="lr-tb" unicode-bidi="normal" text-decoration="none" transform="matrix(1 0 0 1 957.044 742)">2. Causes</text><path d="M2112 670.001C2112 657.298 2122.3 647 2135 647L2963 647C2975.7 647 2986 657.298 2986 670.001L2986 761.999C2986 774.702 2975.7 785 2963 785L2135 785C2122.3 785 2112 774.702 2112 761.999Z" stroke="#0FACE8" stroke-width="10.3125" stroke-linecap="butt" stroke-linejoin="miter" stroke-miterlimit="8" stroke-opacity="1" fill="#FFFFFF" fill-rule="evenodd" fill-opacity="1"/><text fill="#0FACE8" fill-opacity="1" font-family="Avenir Book,Avenir Book_MSFontService,sans-serif" font-style="normal" font-variant="normal" font-weight="400" font-stretch="normal" font-size="83" text-anchor="start" direction="ltr" writing-mode="lr-tb" unicode-bidi="normal" text-decoration="none" transform="matrix(1 0 0 1 2171.56 742)">5. Metrics of success</text><path d="M3131 675.001C3131 662.298 3141.3 652 3154 652L3642 652C3654.7 652 3665 662.298 3665 675.001L3665 767C3665 779.703 3654.7 790.001 3642 790.001L3154 790.001C3141.3 790.001 3131 779.703 3131 767Z" stroke="#0FACE8" stroke-width="10.3125" stroke-linecap="butt" stroke-linejoin="miter" stroke-miterlimit="8" stroke-opacity="1" fill="#FFFFFF" fill-rule="evenodd" fill-opacity="1"/><text fill="#0FACE8" fill-opacity="1" font-family="Avenir Book,Avenir Book_MSFontService,sans-serif" font-style="normal" font-variant="normal" font-weight="400" font-stretch="normal" font-size="83" text-anchor="start" direction="ltr" writing-mode="lr-tb" unicode-bidi="normal" text-decoration="none" transform="matrix(1 0 0 1 3265.29 747)">Better?</text><path d="M2024 710.844 2087 710.844 2087 721.157 2024 721.156ZM2081.84 700.532 2112.78 716 2081.84 731.469Z" fill="#000000" fill-rule="nonzero" fill-opacity="1"/><path d="M1401 710.844 1464 710.844 1464 721.157 1401 721.156ZM1458.84 700.532 1489.78 716 1458.84 731.469Z" fill="#000000" fill-rule="nonzero" fill-opacity="1"/><path d="M1753.56 918.042 1752.18 810.846 1762.49 810.713 1763.88 917.909ZM1741.93 816.135 1757 785 1772.87 815.735Z" fill="#F33434" fill-rule="nonzero" fill-opacity="1"/><path d="M1947 399.834C1947 387.223 1957.22 377 1969.83 377L2457.17 377C2469.78 377 2480 387.223 2480 399.834L2480 491.166C2480 503.777 2469.78 514 2457.17 514L1969.83 514C1957.22 514 1947 503.777 1947 491.166Z" stroke="#F38234" stroke-width="10.3125" stroke-linecap="butt" stroke-linejoin="miter" stroke-miterlimit="8" stroke-opacity="1" fill="#FFFFFF" fill-rule="evenodd" fill-opacity="1"/><text fill="#F38234" fill-opacity="1" font-family="Avenir Book,Avenir Book_MSFontService,sans-serif" font-style="normal" font-variant="normal" font-weight="400" font-stretch="normal" font-size="83" text-anchor="start" direction="ltr" writing-mode="lr-tb" unicode-bidi="normal" text-decoration="none" transform="matrix(1 0 0 1 1998.98 471)">4. Solutions</text><path d="M1251 399.834C1251 387.223 1261.22 377 1273.83 377L1762.17 377C1774.78 377 1785 387.223 1785 399.834L1785 491.166C1785 503.777 1774.78 514 1762.17 514L1273.83 514C1261.22 514 1251 503.777 1251 491.166Z" stroke="#E858BB" stroke-width="10.3125" stroke-linecap="butt" stroke-linejoin="miter" stroke-miterlimit="8" stroke-opacity="1" fill="#FFFFFF" fill-rule="evenodd" fill-opacity="1"/><text fill="#E858BB" fill-opacity="1" font-family="Avenir Book,Avenir Book_MSFontService,sans-serif" font-style="normal" font-variant="normal" font-weight="400" font-stretch="normal" font-size="83" text-anchor="start" direction="ltr" writing-mode="lr-tb" unicode-bidi="normal" text-decoration="none" transform="matrix(1 0 0 1 1349.37 471)">3. Insight</text><path d="M2642 399.834C2642 387.223 2652.22 377 2664.83 377L3260.17 377C3272.78 377 3283 387.223 3283 399.834L3283 491.166C3283 503.777 3272.78 514 3260.17 514L2664.83 514C2652.22 514 2642 503.777 2642 491.166Z" stroke="#0FACE8" stroke-width="10.3125" stroke-linecap="butt" stroke-linejoin="miter" stroke-miterlimit="8" stroke-opacity="1" fill="#FFFFFF" fill-rule="evenodd" fill-opacity="1"/><text fill="#0FACE8" fill-opacity="1" font-family="Avenir Book,Avenir Book_MSFontService,sans-serif" font-style="normal" font-variant="normal" font-weight="400" font-stretch="normal" font-size="83" text-anchor="start" direction="ltr" writing-mode="lr-tb" unicode-bidi="normal" text-decoration="none" transform="matrix(1 0 0 1 2688.01 471)">6. Experiments</text><path d="M1785 440.844 1920.59 440.844 1920.59 451.156 1785 451.156ZM1915.44 430.531 1946.38 446 1915.44 461.469Z" fill="#000000" fill-rule="nonzero" fill-opacity="1"/><path d="M1.15312e-05-5.15625 135.594-5.15595 135.594 5.15655-1.15312e-05 5.15625ZM130.438-15.4685 161.376 0.000360892 130.438 15.469Z" fill="#000000" fill-rule="nonzero" fill-opacity="1" transform="matrix(1 0 0 -1 2480 446)"/><path d="M1128.85 647.715 1129.53 628.635 1131.53 609.535 1134.75 590.747 1139.11 572.414 1144.52 554.679 1150.9 537.686 1158.17 521.578 1166.23 506.496 1175.03 492.584 1184.44 480.034 1189.43 474.232 1194.51 468.854 1199.73 463.879 1205.07 459.325 1210.53 455.214 1216.42 451.363 1224.76 448.176 1228.44 457.809 1220.62 460.798 1221.6 460.296 1216.32 463.749 1216.6 463.554 1211.4 467.47 1211.64 467.275 1206.53 471.634 1206.74 471.442 1201.72 476.226 1201.91 476.038 1197 481.229 1197.17 481.045 1192.38 486.624 1192.59 486.358 1183.4 498.607 1183.63 498.269 1175.05 511.849 1175.24 511.525 1167.34 526.288 1167.49 525.976 1160.37 541.774 1160.5 541.466 1154.23 558.152 1154.34 557.844 1149.02 575.269 1149.11 574.957 1144.82 592.973 1144.89 592.652 1141.72 611.112 1141.77 610.777 1139.8 629.532 1139.83 629.179 1139.15 648.083ZM1217.44 439.502 1251.41 446 1225.83 469.28Z" fill="#E858BB" fill-rule="nonzero" fill-opacity="1"/><path d="M3283.28 440.851 3288.98 441.166 3294.92 442.14 3300.8 443.726 3306.6 445.893 3312.3 448.612 3317.9 451.853 3323.4 455.593 3328.78 459.805 3334.05 464.47 3339.19 469.565 3344.2 475.07 3349.08 480.967 3353.81 487.237 3358.41 493.901 3367.04 508.093 3374.99 523.527 3382.14 540.011 3388.42 557.399 3393.75 575.545 3398.04 594.303 3401.22 613.568 3402.32 626.604 3392.04 627.468 3390.96 614.636 3391.01 615.044 3387.89 596.139 3387.95 596.45 3383.73 577.998 3383.81 578.301 3378.57 560.456 3378.67 560.755 3372.5 543.667 3372.61 543.967 3365.6 527.788 3365.74 528.095 3357.96 512.976 3358.14 513.296 3349.68 499.388 3349.84 499.639 3345.38 493.187 3345.51 493.361 3340.91 487.269 3341.06 487.449 3336.33 481.735 3336.49 481.921 3331.66 476.605 3331.84 476.796 3326.89 471.897 3327.1 472.094 3322.06 467.629 3322.31 467.83 3317.18 463.82 3317.46 464.023 3312.26 460.486 3312.58 460.686 3307.31 457.641 3307.68 457.832 3302.36 455.299 3302.77 455.474 3297.42 453.47 3297.88 453.619 3292.49 452.164 3293 452.275 3287.59 451.388 3288.14 451.448 3282.72 451.148ZM3412.32 620.976 3398.7 652.772 3381.43 622.801Z" fill="#0FACE8" fill-rule="nonzero" fill-opacity="1"/><path d="M2543.87 646.483 2544.21 642.9 2545.34 638.938 2547.12 635.142 2549.48 631.515 2552.36 628.039 2555.72 624.693 2559.55 621.457 2563.81 618.32 2568.51 615.272 2573.61 612.309 2579.11 609.43 2584.98 606.635 2591.22 603.927 2597.84 601.296 2611.95 596.357 2627.28 591.818 2643.65 587.732 2660.91 584.145 2678.92 581.102 2697.54 578.651 2716.61 576.839 2735.98 575.716 2755.42 575.333 2774.75 574.951 2774.56 574.959 2793.74 573.847 2793.55 573.861 2812.44 572.068 2812.25 572.089 2830.68 569.662 2830.49 569.69 2848.32 566.679 2848.13 566.715 2865.19 563.168 2864.99 563.213 2881.15 559.18 2880.94 559.238 2896.04 554.766 2895.8 554.844 2909.69 549.982 2909.49 550.057 2915.93 547.496 2915.79 547.557 2921.87 544.916 2921.71 544.99 2927.42 542.276 2927.24 542.365 2932.55 539.584 2932.35 539.693 2937.24 536.851 2936.26 537.596 2943.11 530.997 2950.26 538.425 2942.96 545.456 2937.43 548.667 2931.93 551.546 2926.06 554.341 2919.82 557.049 2913.2 559.68 2899.09 564.619 2883.76 569.158 2867.39 573.244 2850.13 576.831 2832.12 579.874 2813.5 582.325 2794.43 584.137 2775.06 585.26 2755.62 585.643 2736.29 586.025 2736.48 586.017 2717.3 587.129 2717.49 587.114 2698.6 588.908 2698.79 588.887 2680.36 591.314 2680.55 591.286 2662.72 594.297 2662.91 594.261 2645.85 597.808 2646.05 597.762 2629.89 601.796 2630.1 601.737 2615 606.209 2615.24 606.132 2601.35 610.994 2601.55 610.919 2595.11 613.48 2595.26 613.419 2589.17 616.06 2589.33 615.986 2583.62 618.7 2583.8 618.611 2578.49 621.392 2578.69 621.283 2573.8 624.125 2574.02 623.99 2569.56 626.886 2569.8 626.716 2565.8 629.662 2566.07 629.445 2562.54 632.432 2562.85 632.151 2559.8 635.176 2560.14 634.809 2557.61 637.864 2557.96 637.384 2555.96 640.463 2556.31 639.843 2554.85 642.94 2555.14 642.163 2554.26 645.273 2554.43 644.354 2554.13 647.469ZM2931.19 529.641 2962.04 514 2956.04 548.065Z" fill="#0FACE8" fill-rule="nonzero" fill-opacity="1"/><path d="M785 1302.17C785 1282.19 801.192 1266 821.167 1266L3710.83 1266C3730.81 1266 3747 1282.19 3747 1302.17L3747 1446.83C3747 1466.81 3730.81 1483 3710.83 1483L821.167 1483C801.192 1483 785 1466.81 785 1446.83Z" stroke="#7F7F7F" stroke-width="10.3125" stroke-linecap="butt" stroke-linejoin="miter" stroke-miterlimit="8" stroke-opacity="1" fill="#FFFFFF" fill-rule="evenodd" fill-opacity="1"/><text fill="#7F7F7F" fill-opacity="1" font-family="Avenir Book,Avenir Book_MSFontService,sans-serif" font-style="normal" font-variant="normal" font-weight="400" font-stretch="normal" font-size="83" text-anchor="start" direction="ltr" writing-mode="lr-tb" unicode-bidi="normal" text-decoration="none" transform="matrix(1 0 0 1 3279.28 1432)">Their Paper</text><path d="M2271.16 1153.78 2271.16 1164.09 2260.84 1164.09 2260.84 1153.78ZM2271.16 1174.41 2271.16 1184.72 2260.84 1184.72 2260.84 1174.41ZM2271.16 1195.03 2271.16 1205.34 2260.84 1205.34 2260.84 1195.03ZM2271.16 1215.66 2271.16 1225.97 2260.84 1225.97 2260.84 1215.66ZM2271.16 1236.28 2271.16 1240.07 2260.84 1240.07 2260.84 1236.28ZM2250.53 1158.94 2266 1128 2281.47 1158.94ZM2281.47 1234.91 2266 1265.85 2250.53 1234.91Z" fill="#7F7F7F" fill-rule="nonzero" fill-opacity="1"/></g></g></svg>